HIERARCHY
ROOT Hips
{
	OFFSET -4.395650 12.296185 94.475899
	CHANNELS 6 Xposition Yposition Zposition Zrotation Xrotation Yrotation
	JOINT LeftUpLeg
	{
		OFFSET 8.642590 2.388350 1.953979
		CHANNELS 6 Xposition Yposition Zposition Zrotation Xrotation Yrotation
		JOINT LeftLeg
		{
			OFFSET 43.770199 0.000000 0.000000
			CHANNELS 6 Xposition Yposition Zposition Zrotation Xrotation Yrotation
			JOINT LeftFoot
			{
				OFFSET 40.623798 0.000000 0.000000
				CHANNELS 6 Xposition Yposition Zposition Zrotation Xrotation Yrotation
				JOINT LeftToeBase
				{
					OFFSET 12.724197 0.000000 0.000000
					CHANNELS 6 Xposition Yposition Zposition Zrotation Xrotation Yrotation
					End Site
					{
						OFFSET 0.000000 0.000000 0.099998
					}
				}
			}
		}
	}
	JOINT RightUpLeg
	{
		OFFSET -8.224900 2.593360 1.953979
		CHANNELS 6 Xposition Yposition Zposition Zrotation Xrotation Yrotation
		JOINT RightLeg
		{
			OFFSET 43.565300 0.000000 0.000000
			CHANNELS 6 Xposition Yposition Zposition Zrotation Xrotation Yrotation
			JOINT RightFoot
			{
				OFFSET 40.623802 0.000000 0.000000
				CHANNELS 6 Xposition Yposition Zposition Zrotation Xrotation Yrotation
				JOINT RightToeBase
				{
					OFFSET 12.724197 0.000000 0.000000
					CHANNELS 6 Xposition Yposition Zposition Zrotation Xrotation Yrotation
					End Site
					{
						OFFSET 0.000000 0.000000 0.099998
					}
				}
			}
		}
	}
	JOINT Spine
	{
		OFFSET 0.165834 -6.613491 0.877136
		CHANNELS 6 Xposition Yposition Zposition Zrotation Xrotation Yrotation
		JOINT Spine1
		{
			OFFSET 7.389630 0.000000 0.000015
			CHANNELS 6 Xposition Yposition Zposition Zrotation Xrotation Yrotation
			JOINT Spine2
			{
				OFFSET 11.944500 0.000000 0.000015
				CHANNELS 6 Xposition Yposition Zposition Zrotation Xrotation Yrotation
				JOINT Spine3
				{
					OFFSET 14.725400 0.000000 0.000046
					CHANNELS 6 Xposition Yposition Zposition Zrotation Xrotation Yrotation
					JOINT Spine4
					{
						OFFSET 10.967901 0.000000 0.000000
						CHANNELS 6 Xposition Yposition Zposition Zrotation Xrotation Yrotation
						JOINT RightShoulder
						{
							OFFSET 2.466160 -3.696510 -1.665298
							CHANNELS 6 Xposition Yposition Zposition Zrotation Xrotation Yrotation
							JOINT RightArm
							{
								OFFSET 13.001202 0.000000 0.000000
								CHANNELS 6 Xposition Yposition Zposition Zrotation Xrotation Yrotation
								JOINT RightForeArm
								{
									OFFSET 28.784798 0.000000 0.000015
									CHANNELS 6 Xposition Yposition Zposition Zrotation Xrotation Yrotation
									JOINT RightHand
									{
										OFFSET 26.568802 0.000000 0.000015
										CHANNELS 6 Xposition Yposition Zposition Zrotation Xrotation Yrotation
										JOINT RightHandMiddle1
										{
											OFFSET 8.036751 -0.727868 -0.886581
											CHANNELS 6 Xposition Yposition Zposition Zrotation Xrotation Yrotation
											JOINT RightHandMiddle2
											{
												OFFSET 2.788330 0.000000 0.000000
												CHANNELS 6 Xposition Yposition Zposition Zrotation Xrotation Yrotation
												JOINT RightHandMiddle3
												{
													OFFSET 2.411552 0.000000 0.000000
													CHANNELS 6 Xposition Yposition Zposition Zrotation Xrotation Yrotation
													End Site
													{
														OFFSET 0.000000 0.000000 0.099998
													}
												}
											}
										}
										JOINT RightHandRing1
										{
											OFFSET 7.979660 1.004860 -0.886765
											CHANNELS 6 Xposition Yposition Zposition Zrotation Xrotation Yrotation
											JOINT RightHandRing2
											{
												OFFSET 2.863678 0.000000 0.000000
												CHANNELS 6 Xposition Yposition Zposition Zrotation Xrotation Yrotation
												JOINT RightHandRing3
												{
													OFFSET 2.110786 0.000000 0.000000
													CHANNELS 6 Xposition Yposition Zposition Zrotation Xrotation Yrotation
													End Site
													{
														OFFSET 0.000000 0.000000 0.099998
													}
												}
											}
										}
										JOINT RightHandPinky1
										{
											OFFSET 8.037071 2.606960 -0.887527
											CHANNELS 6 Xposition Yposition Zposition Zrotation Xrotation Yrotation
											JOINT RightHandPinky2
											{
												OFFSET 1.846283 0.000000 0.000000
												CHANNELS 6 Xposition Yposition Zposition Zrotation Xrotation Yrotation
												JOINT RightHandPinky3
												{
													OFFSET 1.884338 0.000000 0.000000
													CHANNELS 6 Xposition Yposition Zposition Zrotation Xrotation Yrotation
													End Site
													{
														OFFSET 0.000000 0.000000 0.099998
													}
												}
											}
										}
										JOINT RightHandIndex1
										{
											OFFSET 7.922623 -2.311760 -0.885498
											CHANNELS 6 Xposition Yposition Zposition Zrotation Xrotation Yrotation
											JOINT RightHandIndex2
											{
												OFFSET 2.637611 0.000000 0.000000
												CHANNELS 6 Xposition Yposition Zposition Zrotation Xrotation Yrotation
												JOINT RightHandIndex3
												{
													OFFSET 2.166557 0.000000 0.000000
													CHANNELS 6 Xposition Yposition Zposition Zrotation Xrotation Yrotation
													End Site
													{
														OFFSET 0.000000 -0.000000 0.099998
													}
												}
											}
										}
										JOINT RightHandThumb1
										{
											OFFSET 3.476898 -2.887890 0.059799
											CHANNELS 6 Xposition Yposition Zposition Zrotation Xrotation Yrotation
											JOINT RightHandThumb2
											{
												OFFSET 2.776863 0.000015 0.000099
												CHANNELS 6 Xposition Yposition Zposition Zrotation Xrotation Yrotation
												JOINT RightHandThumb3
												{
													OFFSET 2.420578 0.000000 -0.000092
													CHANNELS 6 Xposition Yposition Zposition Zrotation Xrotation Yrotation
													End Site
													{
														OFFSET 0.000000 -0.000000 0.099998
													}
												}
											}
										}
									}
								}
							}
						}
						JOINT LeftShoulder
						{
							OFFSET 2.380341 3.752301 -1.292747
							CHANNELS 6 Xposition Yposition Zposition Zrotation Xrotation Yrotation
							JOINT LeftArm
							{
								OFFSET 16.318199 0.000000 0.000061
								CHANNELS 6 Xposition Yposition Zposition Zrotation Xrotation Yrotation
								JOINT LeftForeArm
								{
									OFFSET 27.090103 0.000000 0.000000
									CHANNELS 6 Xposition Yposition Zposition Zrotation Xrotation Yrotation
									JOINT LeftHand
									{
										OFFSET 24.545097 0.000000 0.000015
										CHANNELS 6 Xposition Yposition Zposition Zrotation Xrotation Yrotation
										JOINT LeftHandMiddle1
										{
											OFFSET 9.218018 -0.545532 0.665817
											CHANNELS 6 Xposition Yposition Zposition Zrotation Xrotation Yrotation
											JOINT LeftHandMiddle2
											{
												OFFSET 2.662552 0.000000 0.000000
												CHANNELS 6 Xposition Yposition Zposition Zrotation Xrotation Yrotation
												JOINT LeftHandMiddle3
												{
													OFFSET 2.280403 0.000000 0.000000
													CHANNELS 6 Xposition Yposition Zposition Zrotation Xrotation Yrotation
													End Site
													{
														OFFSET 0.000000 0.000000 0.099998
													}
												}
											}
										}
										JOINT LeftHandRing1
										{
											OFFSET 9.247749 1.126700 0.665192
											CHANNELS 6 Xposition Yposition Zposition Zrotation Xrotation Yrotation
											JOINT LeftHandRing2
											{
												OFFSET 2.470413 0.000015 0.000000
												CHANNELS 6 Xposition Yposition Zposition Zrotation Xrotation Yrotation
												JOINT LeftHandRing3
												{
													OFFSET 2.205399 0.000000 0.000000
													CHANNELS 6 Xposition Yposition Zposition Zrotation Xrotation Yrotation
													End Site
													{
														OFFSET 0.000000 0.000000 0.099998
													}
												}
											}
										}
										JOINT LeftHandPinky1
										{
											OFFSET 9.353844 2.723320 0.663010
											CHANNELS 6 Xposition Yposition Zposition Zrotation Xrotation Yrotation
											JOINT LeftHandPinky2
											{
												OFFSET 1.634071 0.000000 0.000000
												CHANNELS 6 Xposition Yposition Zposition Zrotation Xrotation Yrotation
												JOINT LeftHandPinky3
												{
													OFFSET 1.711761 0.000000 0.000000
													CHANNELS 6 Xposition Yposition Zposition Zrotation Xrotation Yrotation
													End Site
													{
														OFFSET 0.000000 0.000000 0.099998
													}
												}
											}
										}
										JOINT LeftHandIndex1
										{
											OFFSET 8.731613 -2.068010 0.675903
											CHANNELS 6 Xposition Yposition Zposition Zrotation Xrotation Yrotation
											JOINT LeftHandIndex2
											{
												OFFSET 2.666893 0.000000 0.000000
												CHANNELS 6 Xposition Yposition Zposition Zrotation Xrotation Yrotation
												JOINT LeftHandIndex3
												{
													OFFSET 2.129463 -0.000015 0.000000
													CHANNELS 6 Xposition Yposition Zposition Zrotation Xrotation Yrotation
													End Site
													{
														OFFSET 0.000000 0.000000 0.099998
													}
												}
											}
										}
										JOINT LeftHandThumb1
										{
											OFFSET 4.967354 -3.395860 -0.622650
											CHANNELS 6 Xposition Yposition Zposition Zrotation Xrotation Yrotation
											JOINT LeftHandThumb2
											{
												OFFSET 2.153862 0.000000 0.000015
												CHANNELS 6 Xposition Yposition Zposition Zrotation Xrotation Yrotation
												JOINT LeftHandThumb3
												{
													OFFSET 2.195107 -0.000015 -0.000038
													CHANNELS 6 Xposition Yposition Zposition Zrotation Xrotation Yrotation
													End Site
													{
														OFFSET 0.000000 0.000000 0.099998
													}
												}
											}
										}
									}
								}
							}
						}
						JOINT Neck
						{
							OFFSET 5.022598 0.000000 -0.026634
							CHANNELS 6 Xposition Yposition Zposition Zrotation Xrotation Yrotation
							JOINT Head
							{
								OFFSET 6.693642 0.000000 0.000031
								CHANNELS 6 Xposition Yposition Zposition Zrotation Xrotation Yrotation
								End Site
								{
									OFFSET 0.000000 0.000000 0.099998
								}
							}
						}
					}
				}
			}
		}
	}
}
MOTION
Frames: 4
Frame Time: 0.041667
-2.747381 18.094093 93.917603 23.953332 -92.416216 24.778767 8.642590 2.388345 1.953989 86.960275 178.272555 -2.168975 43.770195 -0.000002 -0.000004 0.016742 -0.159270 5.957633 40.623791 -0.000002 0.000017 -9.102383 0.722425 -65.576721 12.724182 0.000000 0.000016 0.000000 0.000003 -28.780795 -8.224899 2.593349 1.953977 -89.535686 -0.362702 173.404269 43.565315 0.000001 0.000002 -0.865979 3.033649 18.343595 40.623802 -0.000000 0.000009 -4.152083 0.383781 -66.776301 12.724207 0.000001 0.000008 0.000024 0.000002 -28.780798 0.165834 -6.613498 0.877128 -89.797460 -0.532850 7.100292 7.389625 -0.000000 0.000021 0.043783 -1.084206 -12.673420 11.944512 -0.000000 0.000017 0.308335 -1.040376 -1.000102 14.725420 0.000001 0.000048 0.353952 -1.025799 21.535426 10.967905 0.000000 0.000014 -0.018537 -1.084983 1.519427 2.466153 -3.696511 -1.665298 -67.844330 97.273956 -90.499166 13.001233 -0.000001 -0.000000 3.217289 26.702454 -14.571295 28.784803 -0.000003 0.000006 -25.771540 -25.905388 -17.123260 26.568790 -0.000001 0.000024 6.989108 0.009040 -1.728123 8.036744 -0.727864 -0.886583 -86.994671 89.689509 88.025327 2.788322 -0.000001 -0.000007 0.000023 0.000005 0.060488 2.411545 -0.000000 0.000007 -0.000000 -0.000010 0.063920 7.979667 1.004867 -0.886764 -86.993428 89.689509 88.014036 2.863672 0.000001 -0.000009 0.000001 -0.000007 1.157419 2.110772 -0.000001 -0.000001 -0.000001 -0.000007 -2.575999 8.037070 2.606957 -0.887528 -86.991700 89.689557 87.635282 1.846270 0.000000 -0.000002 -0.000000 -0.000007 1.145781 1.884322 0.000001 0.000001 -0.000001 0.000007 -1.145770 7.922629 -2.311753 -0.885498 -86.990888 89.689509 88.043789 2.637606 0.000001 0.000001 0.000505 0.000007 -0.409287 2.166535 -0.000003 -0.000000 0.000000 -0.000007 0.636601 3.476887 -2.887897 0.059795 -93.420882 105.153207 43.810432 2.776850 0.000017 0.000105 -1.363203 0.004264 7.671274 2.420587 0.000000 -0.000103 0.000075 0.000013 11.263397 2.380352 3.752285 -1.292742 43.158961 76.731718 98.911391 16.318195 0.000003 0.000063 19.431098 -2.944435 29.492911 27.090099 0.000001 -0.000010 -41.362283 30.226090 -0.878941 24.545120 0.000002 0.000013 3.628185 -0.041918 17.760474 9.218008 -0.545540 0.665817 -90.001970 -91.188503 -87.831185 2.662554 0.000001 0.000009 0.003299 -0.000197 -3.408881 2.280396 -0.000002 0.000009 -0.000001 0.000003 0.954861 9.247734 1.126702 0.665189 89.999483 -88.811502 90.597487 2.470422 0.000015 0.000008 0.002885 -0.000154 -2.856362 2.205405 0.000003 0.000005 -0.000001 0.000013 3.168440 9.353840 2.723311 0.663008 89.999955 -88.811392 89.716823 1.634068 0.000002 -0.000004 0.002781 -0.000125 -2.544812 1.711763 0.000001 0.000002 0.000000 0.000018 2.544820 8.731607 -2.068011 0.675903 -90.000699 -91.188503 -86.198408 2.666887 0.000001 -0.000003 0.006235 -0.000676 -6.131033 2.129465 -0.000013 -0.000009 -0.000002 -0.000006 2.045419 4.967340 -3.395864 -0.622644 -89.745032 -101.903854 -40.474772 2.153868 -0.000002 0.000035 -0.000005 0.000005 -10.017195 2.195101 -0.000016 -0.000030 0.000004 -0.000005 2.669769 5.022603 -0.000001 -0.026640 -1.753762 2.058166 28.557593 6.693662 -0.000001 0.000025 0.587851 2.789923 17.075693 
-3.500850 18.243095 93.873901 33.566924 -92.665593 33.824671 8.642590 2.388358 1.953984 87.009158 178.282513 -2.206786 43.770199 -0.000001 0.000008 -0.018930 0.677619 5.595323 40.623802 -0.000001 0.000014 -8.831663 0.658376 -64.798339 12.724182 0.000001 0.000008 0.000000 0.000002 -28.780795 -8.224899 2.593378 1.953973 -89.502833 -0.384308 173.085272 43.565300 0.000000 0.000008 -0.984512 3.297144 19.041403 40.623802 -0.000000 0.000005 -4.089591 0.404080 -67.242803 12.724207 0.000001 0.000008 0.000023 0.000003 -28.780792 0.165834 -6.613481 0.877138 -89.807405 -0.538693 7.156261 7.389640 -0.000000 0.000012 0.044520 -1.093922 -12.561475 11.944508 -0.000000 0.000017 0.311407 -1.049629 -0.888137 14.725426 0.000001 0.000046 0.357033 -1.034974 21.647450 10.967900 0.000001 0.000005 -0.018808 -1.094680 1.631356 2.466140 -3.696515 -1.665296 -67.540326 97.315996 -90.696989 13.001217 0.000002 -0.000001 3.021226 26.482918 -14.794656 28.784807 -0.000006 0.000005 -25.569588 -26.673267 -17.225500 26.568798 0.000001 0.000019 6.298511 0.005496 -2.719081 8.036761 -0.727868 -0.886575 -86.994747 89.689509 88.025354 2.788329 -0.000001 -0.000007 0.000022 0.000005 0.060487 2.411539 -0.000001 0.000001 -0.000001 -0.000011 0.063919 7.979685 1.004872 -0.886755 -86.993490 89.689509 88.014029 2.863680 -0.000001 -0.000005 0.000001 -0.000007 1.157421 2.110780 -0.000000 0.000003 -0.000001 -0.000007 -2.576001 8.037088 2.606966 -0.887526 -86.991762 89.689557 87.635254 1.846285 0.000002 -0.000002 -0.000000 -0.000007 1.145780 1.884329 0.000001 0.000001 -0.000000 0.000007 -1.145770 7.922641 -2.311755 -0.885489 -86.990929 89.689509 88.043748 2.637598 -0.000000 -0.000005 0.000505 0.000006 -0.409288 2.166547 -0.000004 0.000000 0.000001 -0.000007 0.636601 3.476894 -2.887886 0.059805 -93.420882 105.153201 43.810435 2.776876 0.000012 0.000100 -1.363204 0.004265 7.671276 2.420572 0.000003 -0.000088 0.000077 0.000014 11.263397 2.380321 3.752289 -1.292745 42.642483 76.530685 99.708905 16.318199 -0.000001 0.000062 20.308439 -2.715414 29.435175 27.090105 0.000008 -0.000015 -40.986743 30.250635 -0.883122 24.545095 -0.000001 0.000019 2.223850 -0.287534 17.529435 9.218014 -0.545543 0.665819 -90.001813 -91.188503 -87.831274 2.662555 -0.000000 0.000003 0.003299 -0.000195 -3.408881 2.280401 0.000001 -0.000000 -0.000001 0.000004 0.954862 9.247742 1.126716 0.665188 89.999306 -88.811502 90.597350 2.470425 0.000014 0.000009 0.002885 -0.000155 -2.856362 2.205396 0.000002 0.000007 -0.000000 0.000015 3.168439 9.353841 2.723318 0.662999 90.000098 -88.811392 89.716591 1.634075 -0.000002 0.000001 0.002781 -0.000123 -2.544811 1.711762 -0.000001 -0.000011 -0.000000 0.000020 2.544820 8.731614 -2.068008 0.675904 -90.000453 -91.188503 -86.198292 2.666894 -0.000001 -0.000003 0.006234 -0.000674 -6.131031 2.129467 -0.000017 -0.000007 -0.000002 -0.000009 2.045421 4.967355 -3.395860 -0.622648 -89.745038 -101.903854 -40.474776 2.153857 0.000003 0.000027 -0.000008 0.000005 -10.017200 2.195109 -0.000016 -0.000023 0.000002 -0.000005 2.669766 5.022580 -0.000000 -0.026642 -1.489345 2.108809 28.463548 6.693655 -0.000000 0.000030 0.507075 2.715851 16.814553 
-4.189260 18.418688 93.859596 42.467808 -92.763135 42.086079 8.642588 2.388347 1.953984 87.022238 178.268921 -2.439252 43.770199 -0.000001 0.000007 -0.050121 1.742733 5.147817 40.623802 -0.000003 0.000019 -8.220130 0.572870 -63.956252 12.724190 -0.000000 0.000020 0.000000 0.000002 -28.780798 -8.224901 2.593361 1.953979 -89.502150 -0.390509 172.618319 43.565300 0.000001 -0.000000 -1.152944 3.749689 19.577349 40.623806 -0.000001 0.000002 -3.516011 0.361499 -67.424800 12.724199 0.000001 0.000004 0.000023 0.000002 -28.780798 0.165834 -6.613489 0.877136 -89.863569 -0.532790 7.186571 7.389628 0.000000 0.000022 -0.013326 -1.075466 -12.501206 11.944505 -0.000000 0.000008 0.250843 -1.045734 -0.827839 14.725397 0.000000 0.000044 0.296640 -1.034144 21.707678 10.967907 0.000000 0.000007 -0.075235 -1.073220 1.691680 2.466142 -3.696510 -1.665290 -67.398592 97.343528 -90.640367 13.001184 0.000001 0.000006 2.629015 26.579254 -15.015015 28.784809 0.000001 0.000021 -25.141815 -28.295411 -17.135544 26.568790 -0.000001 0.000012 6.103291 0.001297 -3.588306 8.036735 -0.727859 -0.886589 -86.994794 89.689509 88.025245 2.788339 0.000000 -0.000006 0.000023 0.000005 0.060487 2.411548 0.000001 0.000011 -0.000001 -0.000010 0.063922 7.979644 1.004866 -0.886769 -86.993538 89.689509 88.013947 2.863672 -0.000003 -0.000004 0.000001 -0.000006 1.157420 2.110772 -0.000002 0.000007 -0.000001 -0.000006 -2.576000 8.037057 2.606965 -0.887533 -86.991816 89.689557 87.635131 1.846296 0.000002 -0.000002 -0.000001 -0.000007 1.145780 1.884328 -0.000000 -0.000003 -0.000001 0.000008 -1.145772 7.922616 -2.311759 -0.885495 -86.991024 89.689509 88.043693 2.637605 0.000001 -0.000007 0.000505 0.000007 -0.409287 2.166545 -0.000002 -0.000002 0.000000 -0.000007 0.636602 3.476871 -2.887890 0.059803 -93.420875 105.153201 43.810428 2.776856 0.000017 0.000105 -1.363204 0.004263 7.671273 2.420573 0.000000 -0.000090 0.000077 0.000015 11.263398 2.380333 3.752289 -1.292741 42.203773 76.339904 100.579098 16.318213 -0.000001 0.000053 20.605661 -2.416355 29.613450 27.090122 -0.000008 -0.000015 -40.956492 29.675772 -0.907005 24.545105 -0.000001 0.000014 2.737749 -0.184542 16.848540 9.218016 -0.545539 0.665813 -90.001922 -91.188503 -87.831315 2.662556 -0.000001 -0.000004 0.003299 -0.000193 -3.408882 2.280397 -0.000001 -0.000003 -0.000002 0.000001 0.954862 9.247739 1.126704 0.665193 89.999668 -88.811502 90.597378 2.470422 0.000014 0.000007 0.002886 -0.000156 -2.856361 2.205402 0.000002 0.000007 -0.000001 0.000012 3.168439 9.353836 2.723311 0.663008 89.999955 -88.811392 89.716611 1.634083 -0.000000 0.000001 0.002781 -0.000126 -2.544811 1.711754 -0.000000 -0.000010 -0.000000 0.000019 2.544819 8.731627 -2.068017 0.675905 -90.000576 -91.188503 -86.198353 2.666892 0.000002 0.000005 0.006235 -0.000674 -6.131032 2.129465 -0.000015 -0.000012 -0.000001 -0.000004 2.045420 4.967340 -3.395856 -0.622647 -89.745032 -101.903854 -40.474779 2.153873 0.000000 0.000035 -0.000001 0.000008 -10.017196 2.195122 -0.000016 -0.000036 0.000004 -0.000002 2.669772 5.022604 -0.000000 -0.026636 -1.075915 2.139431 28.306493 6.693641 0.000001 0.000018 0.200564 2.527545 16.586004 
-4.809262 18.625385 93.879700 51.411886 -92.876236 50.109369 8.642588 2.388352 1.953986 87.112028 178.272555 -2.980880 43.770191 -0.000001 -0.000001 -0.094583 3.247631 5.012911 40.623798 -0.000003 0.000023 -7.530791 0.495185 -63.052338 12.724182 0.000000 0.000012 0.000000 0.000002 -28.780795 -8.224897 2.593369 1.953972 -89.432844 -0.415880 172.083297 43.565308 0.000002 -0.000002 -1.363569 4.299340 20.145945 40.623791 -0.000000 0.000005 -2.736403 0.291814 -67.467632 12.724199 -0.000000 0.000001 0.000023 0.000002 -28.780798 0.165834 -6.613487 0.877137 -89.908621 -0.536577 7.203596 7.389631 0.000001 0.000014 -0.096918 -1.074168 -12.467628 11.944494 0.000001 0.000014 0.169457 -1.065146 -0.794179 14.725400 0.000001 0.000041 0.216174 -1.056663 21.741430 10.967913 0.000000 0.000013 -0.158546 -1.066833 1.725258 2.466152 -3.696513 -1.665300 -66.662749 97.443358 -91.133643 13.001212 0.000002 0.000012 2.125705 26.897983 -15.081724 28.784811 -0.000002 0.000002 -24.649625 -30.618311 -17.138396 26.568796 0.000001 0.000029 6.309240 -0.007050 -3.887664 8.036758 -0.727861 -0.886582 -86.995027 89.689509 88.025388 2.788330 -0.000000 -0.000005 0.000023 0.000004 0.060486 2.411541 0.000000 0.000011 -0.000001 -0.000010 0.063922 7.979652 1.004864 -0.886760 -86.993708 89.689509 88.013797 2.863686 -0.000000 -0.000006 0.000002 -0.000008 1.157421 2.110777 -0.000002 0.000003 -0.000001 -0.000007 -2.575998 8.037069 2.606963 -0.887525 -86.991775 89.689557 87.635111 1.846302 -0.000001 -0.000002 -0.000000 -0.000006 1.145781 1.884336 -0.000002 0.000001 -0.000001 0.000006 -1.145770 7.922614 -2.311757 -0.885501 -86.990963 89.689509 88.043549 2.637597 -0.000001 0.000001 0.000505 0.000006 -0.409287 2.166556 0.000001 0.000006 0.000001 -0.000006 0.636602 3.476894 -2.887897 0.059793 -93.420875 105.153207 43.810428 2.776865 0.000011 0.000109 -1.363204 0.004265 7.671279 2.420570 -0.000000 -0.000080 0.000077 0.000014 11.263397 2.380341 3.752297 -1.292743 41.606487 76.086914 101.479693 16.318203 -0.000001 0.000045 20.715298 -1.832637 30.016035 27.090092 0.000006 -0.000012 -41.740252 29.143085 -0.918140 24.545073 -0.000000 0.000014 3.981771 0.024545 16.742795 9.218029 -0.545538 0.665812 -90.001758 -91.188503 -87.831288 2.662555 0.000000 0.000003 0.003299 -0.000198 -3.408881 2.280403 0.000001 0.000000 -0.000001 -0.000002 0.954861 9.247748 1.126715 0.665192 89.999367 -88.811502 90.597371 2.470416 0.000018 0.000005 0.002885 -0.000155 -2.856361 2.205394 0.000004 0.000007 -0.000000 0.000016 3.168440 9.353846 2.723316 0.663006 90.000023 -88.811392 89.716604 1.634084 0.000001 -0.000013 0.002782 -0.000124 -2.544812 1.711747 0.000001 -0.000004 0.000000 0.000016 2.544819 8.731620 -2.068008 0.675905 -90.000419 -91.188503 -86.198340 2.666889 -0.000000 -0.000003 0.006233 -0.000677 -6.131034 2.129472 -0.000017 -0.000007 -0.000002 -0.000008 2.045421 4.967348 -3.395853 -0.622646 -89.745032 -101.903854 -40.474796 2.153866 -0.000000 0.000027 -0.000002 0.000007 -10.017195 2.195116 -0.000016 -0.000025 0.000002 -0.000003 2.669767 5.022584 -0.000000 -0.026645 -0.897015 1.995403 28.070421 6.693635 0.000001 0.000007 0.135048 2.304639 16.396484 
